<?xml version="1.0" ?><svg id="Icons" viewBox="0 0 128 128" xmlns="http://www.w3.org/2000/svg"><defs><style>.cls-1{fill:#2edf84;}.cls-2{fill:#fff;}</style></defs><rect class="cls-1" height="40" width="80" x="24" y="44"/><polygon class="cls-1" points="80 8 102.33 26.61 102 27 80 27 80 8"/><path class="cls-1" d="M104,123H24a3,3,0,0,1-3-3V8a3,3,0,0,1,3-3H80a3,3,0,0,1,1.92.7l24,20A3,3,0,0,1,107,28v92A3,3,0,0,1,104,123Zm-77-6h74V29.41l-.59-.49h0L78.91,11H27Z"/><path class="cls-1" d="M102,30H80a3,3,0,0,1-3-3V8h6V24h19Z"/><path class="cls-2" d="M49.48,66.68a6.11,6.11,0,0,1-2.38,4.83A10.09,10.09,0,0,1,42,73.77l-.18,0c-.21,0-.69-.65-1.42-2a8.43,8.43,0,0,1-1.09-2.38c0-.11.07-.17.2-.2a14.66,14.66,0,0,0,2.67-.77,2.31,2.31,0,0,0,1.44-2.14,3.25,3.25,0,0,0-.94-2c-1.09-1.26-1.69-2-1.78-2.1a5.64,5.64,0,0,1-1-3.19,5,5,0,0,1,2.35-4.22A10.38,10.38,0,0,1,47,53l.24,0q.21,0,.33.33A40.06,40.06,0,0,0,49.28,57a.27.27,0,0,1,0,.14c0,.15-.08.23-.25.23a2.44,2.44,0,0,1-.37,0,2.51,2.51,0,0,0-.4,0,3.24,3.24,0,0,0-1.75.46,1.63,1.63,0,0,0-.9,1.47,3.61,3.61,0,0,0,1,2.08l1.84,2.33A5.56,5.56,0,0,1,49.48,66.68Z"/><path class="cls-2" d="M59.62,73.37c-1.25,0-2,0-2.14-.05a.7.7,0,0,1-.44-.4c-1-2.09-2.11-4.17-3.18-6.26q-2.51-5-2.51-5.71c0-.73,0-1.83.08-3.29s.07-2.57.07-3.3c0-.34.1-.51.28-.51.56,0,1.4,0,2.53.07s2,.07,2.54.07c.23,0,.34.09.34.29,0,.75,0,1.87-.16,3.38s-.16,2.63-.16,3.38q0,.85,2.82,6.14c.51-.91,1.09-2,1.74-3.37a12.69,12.69,0,0,0,1.3-3.3c0-.68,0-1.69,0-3s0-2.37,0-3c0-.25,0-.39.13-.42h.44c.51,0,1.28,0,2.31-.08s1.81-.07,2.31-.07q.42,0,.42.33c0,.71,0,1.79,0,3.23s0,2.52,0,3.24S67.3,63.33,65.48,67q-1.08,2-3.12,5.94a1.43,1.43,0,0,1-.19.33.9.9,0,0,1-.36.07C61.34,73.35,60.61,73.37,59.62,73.37Z"/><path class="cls-2" d="M88.6,72.62c0,.25-.11.38-.39.38a11.15,11.15,0,0,1-1.52-.31,15.15,15.15,0,0,1-1.55-.42,15.18,15.18,0,0,1-5.56,1.14,9.32,9.32,0,0,1-7-2.86,9.85,9.85,0,0,1-2.72-7.12,10.45,10.45,0,0,1,2.64-7.3,9.11,9.11,0,0,1,7.06-3,10,10,0,0,1,4,.8,7.48,7.48,0,0,1,3.16,2.5,1.05,1.05,0,0,1,.24.47,5.17,5.17,0,0,1-1.24,2c-.83,1-1.36,1.55-1.6,1.55-.06,0-.27-.19-.64-.57A6.12,6.12,0,0,0,82,58.83a4.81,4.81,0,0,0-2.33-.57,4,4,0,0,0-3.3,1.55,5.53,5.53,0,0,0-1.14,3.57A5.15,5.15,0,0,0,76.43,67a4.37,4.37,0,0,0,3.45,1.36,8.6,8.6,0,0,0,3.17-.71c0-.3-.11-1.08-.25-2.33A19.7,19.7,0,0,1,82.62,63c0-.18.06-.28.18-.32a.57.57,0,0,1,.22,0c.27,0,.67,0,1.21.08s1,.07,1.23.07.74,0,1.33-.06,1-.06,1.34-.06.34.15.34.46,0,1.11-.07,2-.08,1.57-.08,2c0,1.19.09,3,.26,5.36Z"/></svg>