<?xml version="1.0" ?><svg id="Layer_1" style="enable-background:new 0 0 512 512;" version="1.1" viewBox="0 0 512 512" xml:space="preserve" xmlns="http://www.w3.org/2000/svg" xmlns:xlink="http://www.w3.org/1999/xlink"><style type="text/css">
	.st0{fill:#FFDEF9;}
	.st1{fill:#955E88;}
	.st2{fill:#6B3763;}
	.st3{fill:#FFFFFF;}
</style><g id="XMLID_184_"><g id="XMLID_138_"><polygon class="st0" id="XMLID_142_" points="330.7,6 87.9,6 87.9,506 449.2,506 449.2,122.8   "/><polygon class="st1" id="XMLID_141_" points="330.7,6 449.2,122.8 330.7,122.8   "/><rect class="st1" height="156.1" id="XMLID_140_" width="329" x="62.8" y="298.8"/><polygon class="st2" id="XMLID_139_" points="62.8,454.9 87.9,476.1 87.9,454.9   "/></g><g id="XMLID_3122_"><path class="st3" d="M163.5,383.5c0-1.6-0.9-3-2.7-4.2c-1.8-1.2-5-2.3-9.7-3.3c-7.4-1.4-12.9-3.7-16.7-6.7    c-3.7-3-5.6-7.2-5.6-12.5c0-5.6,2.3-10.3,7-14.2c4.7-3.9,11-5.8,19-5.8c8.4,0,15.1,1.9,20.1,5.6c5,3.8,7.4,8.6,7.1,14.6l-0.1,0.4    h-19.2c0-2.5-0.6-4.4-1.9-5.7c-1.2-1.3-3.3-1.9-6.1-1.9c-2.1,0-3.8,0.6-5.2,1.7c-1.4,1.1-2.1,2.6-2.1,4.3c0,1.7,0.8,3.1,2.4,4.3    c1.6,1.2,4.9,2.2,9.8,3.2c7.8,1.5,13.5,3.8,17.2,6.8c3.7,3,5.6,7.3,5.6,12.8c0,5.7-2.5,10.4-7.6,14.1c-5,3.7-11.7,5.5-20,5.5    c-8.6,0-15.4-2.2-20.4-6.5s-7.4-9.2-7.2-14.6l0.1-0.3h17.9c0.1,3,1,5.2,2.7,6.5c1.7,1.3,4.2,2,7.4,2c2.7,0,4.7-0.5,6-1.5    C162.8,386.8,163.5,385.4,163.5,383.5z" id="XMLID_3069_"/><path class="st3" d="M223.9,375.1l1.2,6.7l0.3,0.1l1.3-6.8L235,338h20.8l-20.6,63.3h-20.1L194.6,338h20.8    L223.9,375.1z" id="XMLID_3071_"/><path class="st3" d="M266.7,369.7c0-9.9,2.2-17.8,6.5-23.9c4.3-6,10.4-9.1,18.2-9.1c3.3,0,6.2,0.8,8.8,2.4    c2.5,1.6,4.7,3.8,6.5,6.7l1.3-7.9h17.4v62.6c0,8.3-2.9,14.8-8.6,19.4c-5.7,4.6-13.6,6.9-23.6,6.9c-3.3,0-6.7-0.4-10.3-1.3    c-3.6-0.9-7-2.1-10.3-3.6l3.4-14.6c2.8,1.2,5.6,2.2,8.2,2.8c2.6,0.6,5.6,0.9,8.9,0.9c4.2,0,7.3-0.8,9.4-2.5c2-1.7,3.1-4.3,3.1-8    v-4.9c-1.8,2.3-3.9,4-6.2,5.2c-2.4,1.2-5.1,1.8-8.1,1.8c-7.8,0-13.8-2.9-18.1-8.7c-4.3-5.8-6.4-13.4-6.4-22.9V369.7z M286.4,370.9    c0,5.1,0.7,9.2,2.3,12c1.5,2.9,4,4.3,7.6,4.3c2.1,0,4-0.3,5.5-1c1.5-0.7,2.8-1.7,3.8-3v-26.6c-1-1.5-2.2-2.7-3.7-3.5    c-1.5-0.8-3.3-1.2-5.4-1.2c-3.5,0-6.1,1.6-7.6,4.9c-1.6,3.3-2.4,7.5-2.4,12.8V370.9z" id="XMLID_3073_"/></g></g></svg>